<?xml version="1.0" encoding="UTF-8"?>
<svg id="Capa_2" data-name="Capa 2" xmlns="http://www.w3.org/2000/svg" xmlns:xlink="http://www.w3.org/1999/xlink" viewBox="0 0 176.8 90">
  <defs>
    <style>
      .cls-1 {
        fill: #f6f6f6;
      }

      .cls-1, .cls-2 {
        stroke-width: 0px;
      }

      .cls-2 {
        fill: #ffee02;
        filter: url(#drop-shadow-1);
      }
    </style>
    <filter id="drop-shadow-1" filterUnits="userSpaceOnUse">
      <feOffset dx="0" dy="0"/>
      <feGaussianBlur result="blur" stdDeviation="2.83"/>
      <feFlood flood-color="#1d1d1b" flood-opacity=".44"/>
      <feComposite in2="blur" operator="in"/>
      <feComposite in="SourceGraphic"/>
    </filter>
  </defs>
  <g id="Capa_1-2" data-name="Capa 1">
    <g>
      <path class="cls-2" d="M37.48,9.3c-17.38,0-27.19,13.13-28.13,14.44-.09,14.13-.17,28.26-.26,42.39.87,1.24,10.81,14.92,28.61,14.85,17.41-.07,27.19-13.26,28.13-14.58.07-14.01.14-28.01.2-42.02-.83-1.21-10.71-15.08-28.56-15.08ZM33.51,24.42l4.2-2.58,3.87,2.62-1.8,1.44-.07,11.71-2.33,5.4-2.09-5.33.1-11.8-1.88-1.45ZM37.42,45.9l2.07,5.98-2.12,3.17-2.03-3.42,2.09-5.73ZM38.68,45.3l10.11.29,7.31,5.03.03-5.51,4.56-2.65-.1,16.43-21.9-13.6ZM47.99,43.96l-8.97.08,21.73-13.34-.07,5.41-12.7,7.85ZM37.76,10.28l22.73,14.08-15.37,9.4-.02-5.58,6.58-3.82-13.96-8.74-13.87,8.48,10.23,6.76-.03,5.66-19.15-12.49,22.86-13.74ZM14.86,30.49l21.2,13.53-8.76-.02-7.58-4.99-.22,3.87-4.74,3.01.09-15.41ZM14.85,52.22l10.97-6.68,10.13-.25-21.25,12.38.16-5.45ZM37.34,80l-23.39-14.68,20.2-12.99,2.13,3.7-14.24,9.18,15.34,9.55,14.99-9.04-14.13-9.02,2.6-3.9,20.17,12.81-23.66,14.4ZM41.51,65.98l-4.06,2.88-5.96-3.7,4.24-2.86,5.78,3.69Z"/>
      <g>
        <path class="cls-1" d="M91.79,45.83l-1.08-3.08-7.95-.1-1.16,3.06-4.16-.05,7.1-17.72,4.75.06,6.64,17.88-4.14-.05ZM86.86,31.25l-3.06,8.13,5.9.07-2.84-8.2Z"/>
        <path class="cls-1" d="M111.38,27.97c3.68.04,5.98,1.86,7.32,3.98l-3.17,1.67c-.81-1.26-2.32-2.27-4.19-2.29-3.23-.04-5.61,2.41-5.65,5.78s2.28,5.87,5.51,5.91c1.63.02,3.08-.63,3.86-1.32l.03-2.16-4.75-.06.04-3.25,8.49.1-.08,6.8c-1.84,2.01-4.39,3.31-7.62,3.27-5.2-.06-9.43-3.74-9.36-9.35.07-5.63,4.38-9.16,9.58-9.09Z"/>
        <path class="cls-1" d="M127.62,46.26l.21-17.8,3.79.04-.21,17.8-3.79-.04Z"/>
        <path class="cls-1" d="M140.81,46.42l.21-17.8,3.79.05-.17,14.46,7.53.09-.04,3.34-11.31-.14Z"/>
        <path class="cls-1" d="M160.63,46.66l.21-17.8,12.6.15-.04,3.26-8.81-.11-.05,3.87,8.62.1-.04,3.25-8.62-.1-.05,4.14,8.81.11-.04,3.28-12.6-.15Z"/>
      </g>
      <g>
        <path class="cls-1" d="M80.15,58.26c-.46-.26-1.19-.54-1.71-.54-.61,0-1.11.22-1.11.64s.54.66,1.33.97c1.91.76,2.33,1.64,2.31,2.54-.03,1.41-1.33,2.24-2.93,2.23-1.12-.01-2.19-.53-2.68-.94l.66-1.4c.43.31,1.21.72,1.9.72.52,0,1.22-.11,1.22-.61s-.96-.76-1.75-1.13c-1.14-.54-1.89-1.24-1.89-2.39s1.03-2.29,2.77-2.29c.98,0,2.08.47,2.45.67l-.58,1.52Z"/>
        <path class="cls-1" d="M87.38,56.07c2.43,0,4.15,1.83,4.15,4.02s-1.72,4.02-4.15,4.02-4.14-1.84-4.14-4.02,1.69-4.02,4.14-4.02ZM87.38,62.44c1.11,0,2.2-.86,2.2-2.35s-1.09-2.39-2.2-2.39-2.19.89-2.19,2.39,1.07,2.35,2.19,2.35Z"/>
        <path class="cls-1" d="M98.89,63.95h-4.77v-7.72h1.81v6.18h2.96v1.54Z"/>
        <path class="cls-1" d="M101.2,56.22h1.82v4.67c0,.94.64,1.58,1.42,1.58s1.41-.65,1.41-1.58v-4.67h1.82v4.7c0,1.68-1.08,3.18-3.23,3.18s-3.22-1.5-3.22-3.18v-4.7Z"/>
        <path class="cls-1" d="M115.97,57.76h-2.05v6.18h-1.82v-6.18h-2.04v-1.54h5.9v1.54Z"/>
        <path class="cls-1" d="M118.55,56.22h1.82v7.72h-1.82v-7.72Z"/>
        <path class="cls-1" d="M127.2,56.07c2.43,0,4.15,1.83,4.15,4.02s-1.72,4.02-4.15,4.02-4.14-1.84-4.14-4.02,1.69-4.02,4.14-4.02ZM127.2,62.44c1.11,0,2.2-.86,2.2-2.35s-1.09-2.39-2.2-2.39-2.19.89-2.19,2.39,1.07,2.35,2.19,2.35Z"/>
        <path class="cls-1" d="M140.56,56.22v7.72l-.41.11-4.42-4.06v3.95h-1.79v-7.73l.43-.1,4.4,4.04v-3.93h1.79Z"/>
        <path class="cls-1" d="M147.98,58.26c-.46-.26-1.19-.54-1.71-.54-.6,0-1.11.22-1.11.64s.54.66,1.33.97c1.91.76,2.33,1.64,2.31,2.54-.03,1.41-1.33,2.24-2.93,2.23-1.12-.01-2.19-.53-2.68-.94l.66-1.4c.43.31,1.21.72,1.9.72.52,0,1.22-.11,1.22-.61s-.96-.76-1.75-1.13c-1.14-.54-1.89-1.24-1.89-2.39s1.03-2.29,2.77-2.29c.98,0,2.08.47,2.45.67l-.58,1.52Z"/>
        <path class="cls-1" d="M160.3,63.95h-4.77v-7.72h1.82v6.18h2.96v1.54Z"/>
        <path class="cls-1" d="M167.77,63.95h-4.77v-7.72h1.82v6.18h2.96v1.54Z"/>
        <path class="cls-1" d="M176.8,62.78c-.43.51-1.36,1.32-3.08,1.32-2.25,0-4.08-1.69-4.08-4.05s2.04-3.98,4.15-3.98c1.65,0,2.58.76,3.01,1.19l-1.11,1.31c-.2-.21-.84-.87-1.87-.87-1.3,0-2.23,1.06-2.23,2.34s.77,2.4,2.27,2.4c.86,0,1.6-.53,1.84-.84l1.11,1.18Z"/>
      </g>
    </g>
  </g>
</svg>