<?xml version="1.0" encoding="UTF-8"?>
<svg id="Capa_2" data-name="Capa 2" xmlns="http://www.w3.org/2000/svg" viewBox="0 0 214.71 270.26">
  <defs>
    <style>
      .cls-1 {
        fill: #000000;
        stroke-width: 0px;
      }
    </style>
  </defs>
  <g id="Capa_1-2" data-name="Capa 1">
    <path class="cls-1" d="M107.03,0C41.52-.03,4.53,49.5.96,54.44c-.32,53.28-.64,106.56-.96,159.84,3.26,4.66,40.77,56.25,107.86,55.98,65.66-.27,102.51-49.98,106.07-54.97.26-52.81.51-105.62.77-158.42C211.57,52.3,174.32.03,107.03,0ZM92.06,56.98l15.83-9.74,14.6,9.86-6.8,5.43-.27,44.14-8.79,20.36-7.87-20.09.39-44.51-7.1-5.45ZM106.78,138l7.79,22.55-8,11.94-7.67-12.89,7.88-21.59ZM111.56,135.74l38.11,1.08,27.55,18.98.12-20.78,17.18-9.98-.37,61.97-82.59-51.27ZM146.67,130.68l-33.81.29,81.94-50.29-.25,20.41-47.88,29.59ZM108.07,3.68l85.7,53.08-57.94,35.43-.06-21.03,24.8-14.42-52.62-32.96-52.31,31.96,38.58,25.5-.13,21.33L21.89,55.48,108.07,3.68ZM21.74,79.89l79.92,51.02-33.01-.08-28.57-18.8-.83,14.6-17.87,11.36.35-58.09ZM21.71,161.8l41.37-25.2,38.18-.93-80.14,46.69.59-20.56ZM106.49,266.58l-88.21-55.37,76.16-48.97,8.03,13.94-53.69,34.6,57.83,36.01,56.5-34.09-53.28-34.01,9.8-14.7,76.06,48.29-89.21,54.3ZM122.22,213.68l-15.31,10.85-22.48-13.97,15.99-10.79,21.8,13.9Z"/>
  </g>
</svg>